Coordinates
version=1
nRows=10
nColumns=28
inDegrees=yes

Units are S.I. units (second, meters, Newtons, ...)
Angles are in degrees.

endheader
time	pelvis_tilt	pelvis_list	pelvis_rotation	pelvis_tx	pelvis_ty	pelvis_tz	hip_flexion_r	hip_adduction_r	hip_rotation_r	knee_angle_r	ankle_angle_r	subtalar_angle_r	mtp_angle_r	hip_flexion_l	hip_adduction_l	hip_rotation_l	knee_angle_l	socket_flexion	socket_adduction	socket_rotation	socket_tx	socket_ty	socket_tz	foot_flex	lumbar_extension	lumbar_bending	lumbar_rotation
      0.64583333	     -0.05928313	     -3.43639107	      4.19680647	      0.04941045	      0.98406654	      0.25841653	     27.86680448	      2.24448405	    -14.49928345	    -12.22521148	      2.91735467	    -10.87407114	     21.46650420	    -16.39908958	     -3.71693738	     15.84220168	    -20.95809199	     -8.59976728	      0.00000000	      0.00000000	      0.00000000	     -0.00647401	      0.00000000	      7.54031375	    -13.23934542	      3.99083151	      0.13248922
      0.65000000	     -0.19835628	     -3.29138917	      4.11454328	      0.04945342	      0.98388105	      0.25860807	     28.09299104	      2.10639445	    -14.42487179	    -12.41902710	      3.19491712	    -10.55751794	     20.96838999	    -16.34385084	     -3.55596223	     15.86664760	    -20.71597148	     -8.44024521	      0.00000000	      0.00000000	      0.00000000	     -0.00646251	      0.00000000	      7.51740189	    -13.09647245	      3.77308763	      0.18943350
      0.65416667	     -0.10336336	     -3.44480075	      4.10367548	      0.05558022	      0.98321149	      0.25888916	     28.13107826	      2.27396743	    -14.40590497	    -13.11004507	      2.51238131	    -10.70255648	     20.96147337	    -16.60708743	     -3.69657747	     15.70951721	    -21.16177966	     -8.53516297	      0.00000000	      0.00000000	      0.00000000	     -0.00616284	      0.00000000	      7.43570089	    -13.15622344	      4.07372836	      0.19496480
      0.65833333	     -0.07336445	     -3.53100456	      4.13122749	      0.06160858	      0.98255640	      0.25913253	     28.20463342	      2.37244286	    -14.19600296	    -13.76069291	      2.14253996	    -10.72826807	     20.95838200	    -16.83826545	     -3.78030937	     15.80624986	    -21.42005017	     -8.48848247	      0.00000000	      0.00000000	      0.00000000	     -0.00592664	      0.00000000	      7.32732030	    -13.15495601	      4.29777282	      0.20406312
      0.66250000	     -0.06354933	     -3.61977752	      3.90575768	      0.06751197	      0.98189408	      0.25989232	     28.30239419	      2.64593725	    -13.62310289	    -14.28296546	      0.42385971	    -12.54359535	     22.48206616	    -16.89134529	     -3.76920780	     15.38820266	    -22.21839551	     -8.77181093	      0.00000000	      0.00000000	      0.00000000	     -0.00527030	      0.00000000	      7.16330909	    -13.17002337	      4.43145126	      0.45929902
      0.66666667	     -0.02153691	     -3.71764898	      3.87129139	      0.07359313	      0.98133524	      0.26025922	     28.40941184	      2.75984851	    -13.47619531	    -15.05370793	      0.01606994	    -12.52930480	     22.46258068	    -17.11985414	     -3.84709291	     15.37992800	    -22.50419184	     -8.70103610	      0.00000000	      0.00000000	      0.00000000	     -0.00501375	      0.00000000	      6.99432394	    -13.19343760	      4.65309701	      0.46093686
      0.67083333	      0.04511766	     -3.83228159	      3.74863072	      0.07967576	      0.98079187	      0.26070466	     28.54530147	      2.90070079	    -13.40731643	    -15.91334347	     -0.54432339	    -12.55569167	     22.44016964	    -17.35077681	     -3.90446248	     15.19294078	    -22.88429382	     -8.68045011	      0.00000000	      0.00000000	      0.00000000	     -0.00473976	      0.00000000	      6.77707618	    -13.23719512	      4.87455446	      0.49142806
      0.67500000	      0.09968935	     -3.94723172	      3.65099323	      0.08582166	      0.98034542	      0.26112567	     28.63713328	      3.04391353	    -13.26436453	    -16.70119087	     -1.02361554	    -12.57775070	     22.43541038	    -17.55370807	     -3.96720000	     15.08214036	    -23.27756215	     -8.63882034	      0.00000000	      0.00000000	      0.00000000	     -0.00437395	      0.00000000	      6.56851223	    -13.25209114	      5.11773976	      0.54917430
      0.67916667	      0.15985463	     -4.06933303	      3.53239413	      0.09206338	      0.98002246	      0.26162355	     28.71631244	      3.20181473	    -13.15060198	    -17.48773694	     -1.51684139	    -12.62178876	     22.43585947	    -17.73729242	     -4.03120901	     14.88085681	    -23.72265799	     -8.61195950	      0.00000000	      0.00000000	      0.00000000	     -0.00386253	      0.00000000	      6.32191355	    -13.26344800	      5.34658925	      0.62468680
      0.68333333	      0.23378438	     -4.22450255	      3.34014170	      0.09821274	      0.97965877	      0.26215835	     28.82272231	      3.40693383	    -13.03554255	    -18.33905948	     -2.06983031	    -12.69234812	     22.44933508	    -17.90433462	     -4.09364550	     14.60963615	    -24.26360261	     -8.62651792	      0.00000000	      0.00000000	      0.00000000	     -0.00346729	      0.00000000	      6.02563214	    -13.31909319	      5.60735794	      0.73718803
